<?xml version="1.0" encoding="UTF-8" standalone="no"?>
<!-- Created with Inkscape (http://www.inkscape.org/) -->

<svg
   xmlns:dc="http://purl.org/dc/elements/1.1/"
   xmlns:cc="http://creativecommons.org/ns#"
   xmlns:rdf="http://www.w3.org/1999/02/22-rdf-syntax-ns#"
   xmlns:svg="http://www.w3.org/2000/svg"
   xmlns="http://www.w3.org/2000/svg"
   xmlns:xlink="http://www.w3.org/1999/xlink"
   xmlns:sodipodi="http://sodipodi.sourceforge.net/DTD/sodipodi-0.dtd"
   xmlns:inkscape="http://www.inkscape.org/namespaces/inkscape"
   width="100"
   height="100"
   id="svg2"
   version="1.1"
   inkscape:version="0.48.3.1 r9886"
   sodipodi:docname="Nuovo documento 1.2012_10_09_19_56_38.0.svg">
  <defs
     id="defs4">
    <linearGradient
       inkscape:collect="always"
       id="linearGradient3893">
      <stop
         style="stop-color:#ffffff;stop-opacity:1;"
         offset="0"
         id="stop3895" />
      <stop
         style="stop-color:#ffffff;stop-opacity:0;"
         offset="1"
         id="stop3897" />
    </linearGradient>
    <inkscape:path-effect
       effect="skeletal"
       id="path-effect3035"
       is_visible="true"
       pattern="M 0,5 C 0,2.24 2.24,0 5,0 7.76,0 10,2.24 10,5 10,7.76 7.76,10 5,10 2.24,10 0,7.76 0,5 z"
       copytype="single_stretched"
       prop_scale="1"
       scale_y_rel="false"
       spacing="0"
       normal_offset="0"
       tang_offset="0"
       prop_units="false"
       vertical_pattern="false"
       fuse_tolerance="0" />
    <linearGradient
       inkscape:collect="always"
       xlink:href="#linearGradient3893"
       id="linearGradient3899"
       x1="15"
       y1="40"
       x2="55"
       y2="40"
       gradientUnits="userSpaceOnUse" />
  </defs>
  <sodipodi:namedview
     id="base"
     pagecolor="#ffffff"
     bordercolor="#666666"
     borderopacity="1.0"
     inkscape:pageopacity="0.0"
     inkscape:pageshadow="2"
     inkscape:zoom="9.09"
     inkscape:cx="36.63404"
     inkscape:cy="53.483418"
     inkscape:document-units="px"
     inkscape:current-layer="layer1"
     showgrid="true"
     width="301.18px"
     showguides="false"
     inkscape:snap-from-guide="false"
     objecttolerance="10"
     gridtolerance="20"
     inkscape:snap-grids="false"
     inkscape:window-width="1865"
     inkscape:window-height="1056"
     inkscape:window-x="55"
     inkscape:window-y="24"
     inkscape:window-maximized="1">
    <inkscape:grid
       type="xygrid"
       id="grid2985"
       empspacing="2"
       visible="true"
       enabled="true"
       snapvisiblegridlinesonly="false"
       spacingx="5px"
       spacingy="5px"
       dotted="false"
       color="#007cd9"
       opacity="0.1254902"
       empcolor="#0000ff"
       empopacity="0.25098039" />
  </sodipodi:namedview>
  <metadata
     id="metadata7">
    <rdf:RDF>
      <cc:Work
         rdf:about="">
        <dc:format>image/svg+xml</dc:format>
        <dc:type
           rdf:resource="http://purl.org/dc/dcmitype/StillImage" />
        <dc:title></dc:title>
      </cc:Work>
    </rdf:RDF>
  </metadata>
  <g
     inkscape:label="Livello 1"
     inkscape:groupmode="layer"
     id="layer1"
     transform="translate(0,-952.36214)">
    <path
       style="fill:none;stroke:#000000;stroke-width:1px;stroke-linecap:butt;stroke-linejoin:miter;stroke-opacity:1"
       d="M 50,90 C 50,75 10,85 10,85 l 0,-55 c 0,0 40,-10 40,5 0,15 0,55 0,55"
       id="path3841"
       inkscape:connector-curvature="0"
       transform="translate(0,952.36214)" />
    <path
       style="fill:none;stroke:#000000;stroke-width:1px;stroke-linecap:butt;stroke-linejoin:miter;stroke-opacity:1"
       d="m 50,1042.3621 c 0,-15 40,-5 40,-5 l 0,-54.99987 c 0,0 -40,-10 -40,5 0,14.99997 0,54.99987 0,54.99987"
       id="path3841-9"
       inkscape:connector-curvature="0" />
    <g
       id="g4961">
      <path
         transform="translate(-15,967.36214)"
         d="M 70,20 C 70,31.045695 61.045695,40 50,40 38.954305,40 30,31.045695 30,20 30,8.954305 38.954305,0 50,0 61.045695,0 70,8.954305 70,20 z"
         sodipodi:ry="20"
         sodipodi:rx="20"
         sodipodi:cy="20"
         sodipodi:cx="50"
         id="path3861"
         style="fill:#ffffff;stroke:#000000;stroke-opacity:1;fill-opacity:1"
         sodipodi:type="arc" />
      <path
         sodipodi:type="arc"
         style="fill:#ffffff;fill-opacity:1;stroke:#000000;stroke-opacity:1;stroke-width:0.99997067;stroke-miterlimit:4;stroke-dasharray:none"
         id="path3863"
         sodipodi:cx="50"
         sodipodi:cy="20"
         sodipodi:rx="20"
         sodipodi:ry="20"
         d="M 70,20 C 70,31.045695 61.045695,40 50,40 38.954305,40 30,31.045695 30,20 30,8.954305 38.954305,0 50,0 61.045695,0 70,8.954305 70,20 z"
         transform="matrix(0.75,0,0,1,-2.5,967.36214)" />
      <path
         transform="matrix(0.25,0,0,1,22.5,967.36214)"
         d="M 70,20 C 70,31.045695 61.045695,40 50,40 38.954305,40 30,31.045695 30,20 30,8.954305 38.954305,0 50,0 61.045695,0 70,8.954305 70,20 z"
         sodipodi:ry="20"
         sodipodi:rx="20"
         sodipodi:cy="20"
         sodipodi:cx="50"
         id="path3865"
         style="fill:#ffffff;fill-opacity:1;stroke:#000000;stroke-opacity:1"
         sodipodi:type="arc" />
      <path
         transform="translate(0,952.36214)"
         inkscape:connector-curvature="0"
         id="path3867"
         d="M 35,55 C 35,30 35,15 35,15"
         style="fill:none;stroke:#000000;stroke-width:1px;stroke-linecap:butt;stroke-linejoin:miter;stroke-opacity:1" />
      <path
         transform="translate(0,952.36214)"
         inkscape:connector-curvature="0"
         id="path4949"
         d="m 15,35 c 0,10 40,10 40,0"
         style="fill:none;stroke:#000000;stroke-width:1px;stroke-linecap:butt;stroke-linejoin:miter;stroke-opacity:1" />
      <path
         sodipodi:nodetypes="cc"
         inkscape:connector-curvature="0"
         id="path4951"
         d="m 15.815738,981.30769 c 0.330033,10.07993 38.203507,8.37476 38.258513,0"
         style="fill:none;stroke:#000000;stroke-width:0.8712998px;stroke-linecap:butt;stroke-linejoin:miter;stroke-opacity:1" />
      <path
         style="fill:none;stroke:#000000;stroke-width:0.71927667px;stroke-linecap:butt;stroke-linejoin:miter;stroke-opacity:1"
         d="m 18.627516,975.81363 c 0,6.26722 33.019996,6.26722 33.019996,0"
         id="path4953"
         inkscape:connector-curvature="0" />
      <path
         inkscape:connector-curvature="0"
         id="path4955"
         d="m 22.648607,971.30887 c 0,3.39176 24.482764,3.39176 24.482764,0"
         style="fill:none;stroke:#000000;stroke-width:0.45563042px;stroke-linecap:butt;stroke-linejoin:miter;stroke-opacity:1" />
      <path
         style="fill:none;stroke:#000000;stroke-width:0.91730827px;stroke-linecap:butt;stroke-linejoin:miter;stroke-opacity:1"
         d="m 16.168775,993.76084 c 0,8.93676 37.66245,8.93676 37.66245,0"
         id="path4957"
         inkscape:connector-curvature="0" />
      <path
         sodipodi:nodetypes="cc"
         inkscape:connector-curvature="0"
         id="path4959"
         d="m 18.273823,998.05071 c 4.125413,8.64049 29.932001,8.69549 33.397348,0.11001"
         style="fill:none;stroke:#000000;stroke-width:0.83697641px;stroke-linecap:butt;stroke-linejoin:miter;stroke-opacity:1" />
    </g>
  </g>
</svg>
